<svg width="1022" height="265" viewBox="0 0 1022 265" fill="none" xmlns="http://www.w3.org/2000/svg">
<mask id="mask0" mask-type="alpha" maskUnits="userSpaceOnUse" x="-2" y="0" width="1024" height="265">
<rect x="-2" width="1024" height="265" fill="#121d27"/>
</mask>
<g mask="url(#mask0)">
<path fill-rule="evenodd" clip-rule="evenodd" d="M135.056 266.344L117.111 347.97L47.515 362.599C6.20454 371.284 -19.8256 343.043 -10.33 299.844L-0.610869 255.642L77.4471 239.232L74.8772 250.917C71.3187 267.107 81.0736 277.693 96.5581 274.438L135.056 266.344Z" fill="#121d27"/>
<path fill-rule="evenodd" clip-rule="evenodd" d="M128.088 14.6294L197.684 0L179.739 81.6252L141.242 89.7189C125.757 92.9705 110.176 108.883 106.617 125.074L104.047 136.755L25.9893 153.166L35.7085 108.961C45.204 65.7643 86.777 23.3146 128.088 14.6294V14.6294Z" fill="#121d27"/>
<path fill-rule="evenodd" clip-rule="evenodd" d="M-36.0557 175.291L166.371 133.171L148.352 214.363L-54 256.143L-36.0557 175.291Z" fill="#121d27"/>
<path fill-rule="evenodd" clip-rule="evenodd" d="M201.661 20.4281L238.664 12.6512C265.838 6.93653 282.959 25.5158 276.714 53.9277L265.705 104.006L214.358 114.801L220.665 86.1116C223.008 75.4612 216.588 68.4988 206.405 70.6419L189.858 74.1198L201.661 20.4281V20.4281Z" fill="#121d27"/>
<path fill-rule="evenodd" clip-rule="evenodd" d="M238.674 210.067L227.662 260.148C221.417 288.56 194.071 316.484 166.897 322.195L129.893 329.975L141.696 276.284L158.247 272.806C168.43 270.666 178.68 260.2 181.02 249.549L187.327 220.859L238.674 210.067V210.067Z" fill="#121d27"/>
</g>
</svg>
