<svg xmlns="http://www.w3.org/2000/svg" viewBox="0 0 46 46"><defs><style>.cls-1{fill:#263340;}.cls-2{fill:#E0E0E0;}</style></defs><title>Asset 7</title><g id="Layer_2" data-name="Layer 2"><g id="Layer_1-2" data-name="Layer 1"><circle class="cls-1" cx="23" cy="23" r="23"/><g id="Camada_1"><path class="cls-2" d="M27.43,29a3.16,3.16,0,0,0-1.31-2.59c4.81-.41,7.1-3.06,7.26-6.58a6.51,6.51,0,0,0-2.07-5.17,28.48,28.48,0,0,0-.14-4.11c-1.09-.32-3.61,1-4.32,1.59a13.46,13.46,0,0,0-7.36,0c-1.57-1.1-3.36-1.79-4.33-1.6A5.23,5.23,0,0,0,15,14.65c-1.16,1.06-2.77,2.36-2.33,5.09.7,4,3.52,6.17,8.06,6.7a1.48,1.48,0,0,0-1.22,1.23c-3,1.26-3.91-.77-4.3-1.3-1.28-1.59-2.43-1.13-2.5-1.1a.18.18,0,0,0-.11.17c.06.34.76.69.79.72a5.78,5.78,0,0,1,1.51,2.33c1.36,2.23,4.5,1.31,4.53,1.32,0,1.92,0,3.78,0,5.69h8.16c0-2.2-.2-4.35-.22-6.5Z"/></g></g></g></svg>