<svg xmlns="http://www.w3.org/2000/svg" viewBox="0 0 46 46"><defs><style>.cls-1{fill:#263340;}.cls-2{fill:#E0E0E0;}</style></defs><title>Asset 5</title><g id="Layer_2" data-name="Layer 2"><g id="Layer_1-2" data-name="Layer 1"><circle class="cls-1" cx="23" cy="23" r="23"/><path class="cls-2" d="M14.29,12a2.57,2.57,0,1,0-.07,5.12h0a2.57,2.57,0,1,0,0-5.12Z"/><path class="cls-2" d="M11.79,19.16h4.93V34H11.79Z"/><path class="cls-2" d="M28.82,18.81c-2.66,0-4.44,2.5-4.44,2.5V19.16H19.45V34h4.93V25.71a3.36,3.36,0,0,1,.16-1.2,2.71,2.71,0,0,1,2.53-1.81c1.79,0,2.5,1.36,2.5,3.36V34H34.5v-8.5C34.5,20.93,32.07,18.81,28.82,18.81Z"/></g></g></svg>