<?xml version="1.0" encoding="UTF-8"?>
<!DOCTYPE svg PUBLIC "-//W3C//DTD SVG 1.1//EN" "http://www.w3.org/Graphics/SVG/1.1/DTD/svg11.dtd">
<!-- Creator: CorelDRAW 2018 (64 Bit) -->
<svg xmlns="http://www.w3.org/2000/svg" xml:space="preserve" width="10.2443mm" height="11.2665mm" version="1.1" style="shape-rendering:geometricPrecision; text-rendering:geometricPrecision; image-rendering:optimizeQuality; fill-rule:evenodd; clip-rule:evenodd"
viewBox="0 0 1024.44 1126.66"
 xmlns:xlink="http://www.w3.org/1999/xlink">
 <defs>
  <style type="text/css">
   <![CDATA[
    .fil0 {fill:#E0E0E0}
   ]]>
  </style>
 </defs>
 <g id="Layer_x0020_1">
  <metadata id="CorelCorpID_0Corel-Layer"/>
  <g id="_1726102820176">
   <path class="fil0" d="M583.36 824.01l-55.37 252.53 -214.75 45.26c-127.47,26.87 -207.79,-60.5 -178.49,-194.15l29.99 -136.75 240.86 -50.77 -7.93 36.15c-10.98,50.09 19.12,82.84 66.9,72.77l118.79 -25.04z"/>
   <path class="fil0" d="M561.86 45.26l214.75 -45.26 -55.37 252.53 -118.79 25.04c-47.78,10.06 -95.86,59.29 -106.84,109.38l-7.93 36.14 -240.86 50.77 29.99 -136.76c29.3,-133.64 157.58,-264.97 285.05,-291.84z"/>
   <polygon class="fil0" points="55.37,542.31 679.99,412 624.39,663.19 -0,792.45 "/>
   <path class="fil0" d="M788.88 63.2l114.18 -24.06c83.85,-17.68 136.68,39.8 117.41,127.7l-33.97 154.93 -158.44 33.4 19.46 -88.76c7.23,-32.95 -12.58,-54.49 -44,-47.86l-51.06 10.76 36.42 -166.11z"/>
   <path class="fil0" d="M903.09 649.9l-33.98 154.94c-19.27,87.9 -103.65,174.29 -187.5,191.96l-114.18 24.07 36.42 -166.11 51.07 -10.76c31.42,-6.62 63.05,-39 70.27,-71.95l19.46 -88.76 158.44 -33.39z"/>
  </g>
 </g>
</svg>
