<?xml version="1.0" encoding="UTF-8"?>
<!DOCTYPE svg PUBLIC "-//W3C//DTD SVG 1.1//EN" "http://www.w3.org/Graphics/SVG/1.1/DTD/svg11.dtd">
<!-- Creator: CorelDRAW 2018 (64 Bit) -->
<svg xmlns="http://www.w3.org/2000/svg" xml:space="preserve" width="36.3926mm" height="7.4101mm" version="1.1" style="shape-rendering:geometricPrecision; text-rendering:geometricPrecision; image-rendering:optimizeQuality; fill-rule:evenodd; clip-rule:evenodd"
viewBox="0 0 672.88 137.01"
 xmlns:xlink="http://www.w3.org/1999/xlink">
 <defs>
  <style type="text/css">
   <![CDATA[
    .fil0 {fill:#E0E0E0}
    .fil1 {fill:#E0E0E0;fill-rule:nonzero}
   ]]>
  </style>
 </defs>
 <g id="Camada_x0020_1">
  <metadata id="CorelCorpID_0Corel-Layer"/>
  <g id="_1576882747344">
   <g>
    <path class="fil0" d="M70.94 100.2l-6.73 30.71 -26.12 5.5c-15.5,3.27 -25.27,-7.36 -21.7,-23.61l3.65 -16.63 29.29 -6.17 -0.97 4.4c-1.33,6.09 2.33,10.07 8.14,8.85l14.45 -3.05z"/>
    <path class="fil0" d="M68.32 5.5l26.11 -5.5 -6.73 30.71 -14.45 3.05c-5.81,1.22 -11.66,7.21 -12.99,13.3l-0.96 4.39 -29.29 6.17 3.65 -16.63c3.56,-16.25 19.16,-32.22 34.66,-35.49z"/>
    <polygon class="fil0" points="6.73,65.95 82.69,50.1 75.93,80.65 -0,96.37 "/>
    <path class="fil0" d="M95.93 7.69l13.89 -2.93c10.2,-2.15 16.62,4.84 14.28,15.53l-4.13 18.84 -19.27 4.06 2.37 -10.79c0.88,-4.01 -1.53,-6.63 -5.35,-5.82l-6.21 1.31 4.43 -20.2z"/>
    <path class="fil0" d="M109.82 79.03l-4.13 18.84c-2.34,10.69 -12.6,21.19 -22.8,23.34l-13.89 2.93 4.43 -20.2 6.21 -1.31c3.82,-0.81 7.67,-4.74 8.55,-8.75l2.36 -10.79 19.27 -4.06z"/>
   </g>
   <polygon class="fil1" points="189.01,93.93 189.01,93.93 189.01,43.08 189.01,43.08 221.98,43.08 221.98,43.08 221.98,47.55 221.98,52.07 221.98,52.07 198.38,52.07 198.38,52.07 198.38,62.84 198.38,62.84 220.29,62.84 220.29,67.21 220.29,71.62 220.29,71.62 198.38,71.62 198.38,71.62 198.38,84.94 198.38,84.94 223.04,84.94 223.04,84.94 223.04,89.41 223.04,93.93 223.04,93.93 "/>
   <polygon id="1" class="fil1" points="235.71,93.93 235.71,93.93 235.71,43.08 235.71,43.08 240.38,43.08 245.07,43.08 245.07,43.08 245.07,84.94 245.07,84.94 267.36,84.94 267.36,84.94 267.36,89.41 267.36,93.93 267.36,93.93 "/>
   <polygon id="2" class="fil1" points="288.57,93.93 288.57,52.07 288.57,52.07 275.02,52.07 275.02,52.07 275.02,47.59 275.02,43.08 275.02,43.08 311.48,43.08 311.48,43.08 311.48,47.55 311.48,52.07 311.48,52.07 297.93,52.07 297.93,52.07 297.93,93.93 297.93,93.93 293.27,93.93 "/>
   <path id="3" class="fil1" d="M341.61 95.34c-6.58,0 -11.82,-2.38 -15.7,-7.16 -3.88,-4.78 -5.83,-11.25 -5.83,-19.39 0,-8.31 1.95,-14.91 5.83,-19.79 3.88,-4.89 9.12,-7.33 15.7,-7.33 6.62,0 11.87,2.44 15.74,7.33 3.87,4.89 5.81,11.48 5.81,19.79 0,8.14 -1.94,14.61 -5.81,19.39 -3.87,4.78 -9.12,7.16 -15.74,7.16zm0 -8.99c3.82,0 6.81,-1.56 8.96,-4.67 2.15,-3.1 3.22,-7.43 3.22,-12.96 0,-5.65 -1.07,-10.07 -3.22,-13.27 -2.15,-3.2 -5.14,-4.79 -8.96,-4.79 -3.81,0 -6.78,1.59 -8.94,4.79 -2.15,3.2 -3.22,7.61 -3.22,13.27 0,5.54 1.07,9.86 3.21,12.96 2.14,3.12 5.12,4.67 8.95,4.67z"/>
   <polygon id="4" class="fil1" points="384,93.93 384,93.93 379.65,93.93 375.26,93.93 375.26,93.93 375.26,43.08 375.26,43.08 380.16,43.08 385.07,43.08 385.07,43.08 403.04,78.79 403.04,78.79 403.04,78.79 403.04,43.08 403.04,43.08 407.4,43.08 411.78,43.08 411.78,43.08 411.78,93.93 407.11,93.93 402.45,93.93 384,57.27 384,57.27 384,57.27 "/>
   <path id="5" class="fil1" d="M480.95 75.23l0 0c-0.77,6.28 -2.89,11.2 -6.36,14.77 -3.46,3.56 -7.85,5.35 -13.14,5.35 -6.18,0 -11.1,-2.42 -14.77,-7.26 -3.67,-4.84 -5.5,-11.35 -5.5,-19.55 0,-8.2 1.9,-14.73 5.71,-19.58 3.82,-4.86 8.94,-7.3 15.36,-7.3 5.06,0 9.22,1.48 12.46,4.43 3.26,2.95 5.21,7.02 5.86,12.22l0 0 -5.87 0 0 0c-0.57,-3.37 -1.95,-5.97 -4.13,-7.8 -2.19,-1.83 -5,-2.75 -8.43,-2.75 -4.5,0 -8.07,1.88 -10.73,5.63 -2.66,3.75 -3.99,8.8 -3.99,15.15 0,6.74 1.24,11.89 3.7,15.42 2.46,3.53 6.04,5.3 10.74,5.3 3.46,0 6.35,-1.22 8.65,-3.65 2.29,-2.44 3.82,-5.9 4.57,-10.37l0 0 5.87 0z"/>
   <path id="6" class="fil1" d="M512.84 95.34c-6.51,0 -11.78,-2.47 -15.8,-7.39 -4.03,-4.93 -6.03,-11.4 -6.03,-19.42 0,-8.04 2.01,-14.52 6.03,-19.46 4.03,-4.94 9.29,-7.41 15.8,-7.41 6.55,0 11.82,2.47 15.84,7.41 4.02,4.95 6.02,11.43 6.02,19.46 0,8.02 -2.01,14.48 -6.02,19.42 -4.02,4.92 -9.29,7.39 -15.84,7.39zm0 -6.09c4.67,0 8.45,-1.9 11.32,-5.71 2.86,-3.81 4.3,-8.82 4.3,-15 0,-6.21 -1.44,-11.22 -4.3,-15.05 -2.87,-3.82 -6.65,-5.74 -11.32,-5.74 -4.66,0 -8.43,1.91 -11.3,5.74 -2.86,3.82 -4.3,8.84 -4.3,15.05 0,6.19 1.44,11.19 4.3,15 2.87,3.81 6.64,5.71 11.3,5.71z"/>
   <path id="7" class="fil1" d="M574.26 57.81l0 0c-0.26,-3.21 -1.37,-5.69 -3.34,-7.43 -1.97,-1.75 -4.61,-2.62 -7.94,-2.62 -3.42,0 -6.01,0.76 -7.79,2.26 -1.77,1.5 -2.65,3.69 -2.65,6.57 0,1.97 0.58,3.43 1.77,4.4 1.18,0.97 3.55,1.94 7.11,2.88l7.82 2.11c4.19,1.13 7.18,2.8 8.97,5.02 1.8,2.2 2.7,5.3 2.7,9.32 0,4.62 -1.54,8.28 -4.62,10.98 -3.08,2.7 -7.25,4.05 -12.52,4.05 -5.85,0 -10.43,-1.56 -13.71,-4.66 -3.22,-3.07 -4.82,-7.27 -4.82,-12.59l0 -0.38 0 0 5.56 0 0 0c0.11,3.68 1.28,6.53 3.55,8.53 2.26,2.01 5.4,3.01 9.44,3.01 3.73,0 6.56,-0.73 8.49,-2.18 1.92,-1.45 2.89,-3.59 2.89,-6.41 0,-2.44 -0.63,-4.26 -1.9,-5.44 -1.26,-1.16 -3.81,-2.24 -7.64,-3.28l-7.82 -2.12c-3.94,-1.06 -6.76,-2.54 -8.46,-4.43 -1.67,-1.9 -2.52,-4.52 -2.52,-7.86 0,-4.87 1.46,-8.73 4.37,-11.59 2.92,-2.84 6.86,-4.27 11.82,-4.27 5.03,0 9.05,1.43 12.04,4.3 2.99,2.87 4.59,6.81 4.79,11.85l0 0 -5.56 0z"/>
   <polygon id="8" class="fil1" points="604.92,93.93 604.92,49.17 604.92,49.17 589.75,49.17 589.75,49.17 589.75,46.12 589.75,43.08 589.75,43.08 626.15,43.08 626.15,43.08 626.15,46.12 626.15,49.17 626.15,49.17 610.97,49.17 610.97,49.17 610.97,93.93 610.97,93.93 607.97,93.93 "/>
   <path id="9" class="fil1" d="M632.93 93.93l16.92 -50.85 3.46 0 3.48 0 16.1 50.85 0 0 -3.26 0 -3.26 0 0 0 -4.57 -14.73 0 0 -17.9 0 0 0 -4.71 14.73 0 0 -3.11 0 -3.14 0zm20.1 -43.38l-7.21 22.56 0 0 14.11 0 0 0 -6.91 -22.56 0.01 0z"/>
   <rect class="fil0" x="164.26" y="26.93" width="2.77" height="83.15"/>
  </g>
 </g>
</svg>
